<svg xmlns="http://www.w3.org/2000/svg" viewBox="0 0 200 200" width="200" height="200" role="img" aria-label="">
  <defs><linearGradient id="g" x1="0" y1="0" x2="1" y2="1"><stop offset="0" stop-color="#133247"/><stop offset="1" stop-color="#2f6f9a"/></linearGradient></defs>
  <rect width="200" height="200" fill="url(#g)"/>
  <!-- dot projector + beams -->
  <g stroke="#ffffff" stroke-opacity="0.35" stroke-width="2" stroke-dasharray="2 5">
    <line x1="44" y1="46" x2="74" y2="76"/>
    <line x1="44" y1="46" x2="62" y2="104"/>
  </g>
  <circle cx="44" cy="46" r="4.5" fill="#ffffff" fill-opacity="0.85"/>
  <!-- face outline -->
  <ellipse cx="100" cy="104" rx="44" ry="54" fill="none" stroke="#ffffff" stroke-opacity="0.85" stroke-width="4"/>
  <!-- projected mesh -->
  <g stroke="#ffffff" stroke-opacity="0.5" stroke-width="2" fill="none">
    <path d="M100 56 L74 76 L126 76 Z"/>
    <path d="M74 76 L62 104 L100 100 Z"/>
    <path d="M126 76 L138 104 L100 100 Z"/>
    <path d="M74 76 L100 100 L126 76"/>
    <path d="M62 104 L78 134 L100 100 Z"/>
    <path d="M138 104 L122 134 L100 100 Z"/>
    <path d="M78 134 L122 134 L100 100"/>
    <path d="M78 134 L100 158 L122 134"/>
  </g>
  <!-- scan line -->
  <rect x="58" y="98" width="84" height="5" fill="#ffffff" fill-opacity="0.16"/>
  <line x1="58" y1="100.5" x2="142" y2="100.5" stroke="#ffffff" stroke-opacity="0.95" stroke-width="2.5"/>
  <!-- mesh vertex dots -->
  <g fill="#ffffff">
    <circle cx="100" cy="56" r="3.4"/><circle cx="74" cy="76" r="3.4"/><circle cx="126" cy="76" r="3.4"/>
    <circle cx="62" cy="104" r="3.4"/><circle cx="100" cy="100" r="3.8"/><circle cx="138" cy="104" r="3.4"/>
    <circle cx="78" cy="134" r="3.4"/><circle cx="122" cy="134" r="3.4"/><circle cx="100" cy="158" r="3.4"/>
  </g>
</svg>
